<svg width="318" height="178" viewBox="0 0 318 178" fill="none" xmlns="http://www.w3.org/2000/svg">
<path d="M55.9061 160.953V178.041H0V110.839H54.6546V127.927H22.2853V135.803H46.7174V152.12H22.2853V160.953H55.9061Z" fill="white"/>
<path d="M116.091 130.427C120.026 134.328 121.996 140.219 121.996 148.088V178.041H100.284V151.833C100.284 145.817 98.1414 142.808 93.8519 142.808C91.413 142.808 89.4437 143.656 87.9427 145.355C86.4364 147.052 85.6852 149.719 85.6852 153.369V178.041H63.9736V125.532H84.6272V130.713C86.6752 128.667 89.0474 127.131 91.7359 126.104C94.4256 125.084 97.3396 124.568 100.476 124.568C106.945 124.568 112.151 126.521 116.091 130.427Z" fill="white"/>
<path d="M147.644 175.114C141.947 172.136 137.481 167.978 134.244 162.636C131.007 157.292 129.392 151.224 129.392 144.442C129.392 137.656 131.007 131.593 134.244 126.25C137.481 120.906 141.947 116.745 147.644 113.77C153.345 110.792 159.75 109.308 166.859 109.308C173.39 109.308 179.216 110.458 184.345 112.76C189.463 115.062 193.689 118.396 197.024 122.745L182.708 135.51C178.544 130.265 173.645 127.641 168.01 127.641C163.274 127.641 159.458 129.161 156.576 132.202C153.7 135.24 152.256 139.322 152.256 144.442C152.256 149.562 153.7 153.641 156.576 156.682C159.458 159.724 163.274 161.24 168.01 161.24C173.645 161.24 178.544 158.62 182.708 153.369L197.024 166.136C193.689 170.489 189.463 173.817 184.345 176.12C179.216 178.426 173.39 179.578 166.859 179.578C159.75 179.578 153.345 178.088 147.644 175.114Z" fill="white"/>
<path d="M202.877 125.532H224.59V178.041H202.877V125.532ZM204.274 118.188C201.871 116.104 200.673 113.464 200.673 110.265C200.673 107.068 201.871 104.427 204.274 102.344C206.677 100.265 209.83 99.2239 213.739 99.2239C217.704 99.2239 220.878 100.219 223.245 102.203C225.616 104.188 226.799 106.745 226.799 109.88C226.799 113.208 225.616 115.948 223.245 118.088C220.878 120.235 217.704 121.308 213.739 121.308C209.83 121.308 206.677 120.265 204.274 118.188Z" fill="white"/>
<path d="M292.696 125.532L271.564 178.041H249.085L227.951 125.532H250.236L260.806 153.656L272.142 125.532H292.696Z" fill="white"/>
<path d="M288.132 0L222.385 27.432L229.525 45.26L295.266 17.8227L288.132 0Z" fill="#FBBC0D"/>
<path d="M287.474 36.1147L234.68 58.1413L240.85 73.552L293.641 51.5213L287.474 36.1147Z" fill="#FBBC0D"/>
<path d="M274.555 92.4527L317.901 74.3647L312.017 59.6554L246.271 87.0927L252.161 101.797L252.166 101.791L261.229 123.035L274.555 92.4527Z" fill="#FBBC0D"/>
</svg>
