<svg width="318" height="178" viewBox="0 0 318 178" fill="none" xmlns="http://www.w3.org/2000/svg">
<path d="M55.9602 160.953V178.041H0.0527344V110.838H54.7087V127.926H22.3381V135.802H46.7715V152.119H22.3381V160.953H55.9602Z" fill="#2F2D2D"/>
<path d="M116.146 130.426C120.08 134.327 122.051 140.218 122.051 148.087V178.041H100.338V151.833C100.338 145.817 98.1965 142.806 93.907 142.806C91.4681 142.806 89.4974 143.655 87.9964 145.354C86.4901 147.051 85.7403 149.718 85.7403 153.369V178.041H64.0273V125.53H84.6823V130.713C86.7303 128.666 89.1012 127.13 91.7909 126.103C94.4807 125.082 97.3933 124.567 100.531 124.567C106.998 124.567 112.206 126.521 116.146 130.426Z" fill="#2F2D2D"/>
<path d="M147.697 175.114C142.001 172.136 137.534 167.978 134.297 162.636C131.062 157.292 129.446 151.224 129.446 144.442C129.446 137.656 131.062 131.593 134.297 126.25C137.534 120.906 142.001 116.745 147.697 113.77C153.399 110.792 159.805 109.306 166.914 109.306C173.443 109.306 179.27 110.458 184.398 112.76C189.516 115.062 193.743 118.396 197.079 122.745L182.763 135.51C178.597 130.265 173.699 127.64 168.065 127.64C163.327 127.64 159.513 129.161 156.631 132.202C153.753 135.24 152.309 139.322 152.309 144.442C152.309 149.562 153.753 153.64 156.631 156.682C159.513 159.724 163.327 161.24 168.065 161.24C173.699 161.24 178.597 158.62 182.763 153.369L197.079 166.136C193.743 170.489 189.516 173.817 184.398 176.12C179.27 178.426 173.443 179.578 166.914 179.578C159.805 179.578 153.399 178.088 147.697 175.114Z" fill="#2F2D2D"/>
<path d="M202.937 125.53H224.644V178.041H202.937V125.53ZM204.329 118.187C201.926 116.109 200.727 113.463 200.727 110.265C200.727 107.067 201.926 104.426 204.329 102.343C206.731 100.265 209.885 99.2234 213.792 99.2234C217.759 99.2234 220.928 100.218 223.299 102.202C225.671 104.187 226.853 106.745 226.853 109.879C226.853 113.207 225.671 115.947 223.299 118.087C220.928 120.234 217.759 121.306 213.792 121.306C209.885 121.306 206.731 120.265 204.329 118.187Z" fill="#2F2D2D"/>
<path d="M292.751 125.53L271.617 178.041H249.14L228.006 125.53H250.291L260.861 153.655L272.196 125.53H292.751Z" fill="#2F2D2D"/>
<path d="M288.185 -0.000488281L222.439 27.4315L229.579 45.2595L295.321 17.8222L288.185 -0.000488281Z" fill="#FBBC0D"/>
<path d="M287.529 36.1142L234.734 58.1395L240.905 73.5515L293.694 51.5208L287.529 36.1142Z" fill="#FBBC0D"/>
<path d="M274.608 92.4527L317.955 74.3634L312.071 59.6554L246.324 87.0927L252.213 101.797H252.219L261.282 123.035L274.608 92.4527Z" fill="#FBBC0D"/>
</svg>
