<svg width="50" height="47" viewBox="0 0 50 47" fill="none" xmlns="http://www.w3.org/2000/svg">
<path d="M19.5104 3.85792C21.484 1.76489 24.8123 1.76489 26.7859 3.85792L26.8653 3.94211C28.0346 5.18216 29.7551 5.74116 31.4299 5.42523L31.5436 5.40378C34.3706 4.87054 37.0633 6.82691 37.4297 9.68027L37.4444 9.79504C37.6615 11.4856 38.7248 12.949 40.2655 13.6779L40.3701 13.7274C42.9706 14.9576 43.9991 18.1231 42.6184 20.6469L42.5629 20.7484C41.7448 22.2437 41.7448 24.0526 42.5629 25.5479L42.6184 25.6494C43.9991 28.1732 42.9706 31.3387 40.3701 32.5689L40.2655 32.6184C38.7248 33.3473 37.6615 34.8107 37.4444 36.5013L37.4297 36.616C37.0633 39.4694 34.3706 41.4258 31.5436 40.8925L31.4299 40.8711C29.7551 40.5551 28.0346 41.1141 26.8653 42.3542L26.7859 42.4384C24.8123 44.5314 21.484 44.5314 19.5104 42.4384L19.431 42.3542C18.2617 41.1141 16.5412 40.5551 14.8664 40.8711L14.7527 40.8925C11.9257 41.4258 9.23303 39.4694 8.8666 36.616L8.85186 36.5013C8.63476 34.8107 7.57148 33.3473 6.03079 32.6184L5.92619 32.5689C3.32572 31.3387 2.2972 28.1732 3.67791 25.6494L3.73345 25.5479C4.55147 24.0526 4.55147 22.2437 3.73345 20.7484L3.67791 20.6469C2.2972 18.1231 3.32572 14.9576 5.92619 13.7274L6.03079 13.6779C7.57148 12.949 8.63476 11.4856 8.85186 9.79503L8.8666 9.68027C9.23303 6.82691 11.9257 4.87054 14.7527 5.40378L14.8664 5.42523C16.5412 5.74116 18.2617 5.18216 19.431 3.94211L19.5104 3.85792Z" fill="#E6F3EB"/>
<path d="M45.2168 12.9633C46.4956 11.6844 46.4956 9.61103 45.2168 8.33218C43.9379 7.05334 41.8645 7.05333 40.5856 8.33218L23.3796 25.5382L16.8217 18.9803C15.5428 17.7015 13.4694 17.7015 12.1906 18.9803C10.9117 20.2592 10.9117 22.3326 12.1906 23.6114L21.064 32.4849C22.3429 33.7637 24.4163 33.7637 25.6952 32.4849L45.2168 12.9633Z" fill="#005621" stroke="white" stroke-width="3" stroke-linecap="round" stroke-linejoin="round"/>
</svg>
