<?xml version="1.0" standalone="no"?>
<!DOCTYPE svg PUBLIC "-//W3C//DTD SVG 20010904//EN"
 "http://www.w3.org/TR/2001/REC-SVG-20010904/DTD/svg10.dtd">
<svg version="1.0" xmlns="http://www.w3.org/2000/svg"
 width="300.000000pt" height="300.000000pt" viewBox="0 0 300.000000 300.000000"
 preserveAspectRatio="xMidYMid meet">
<metadata>
Created by potrace 1.11, written by Peter Selinger 2001-2013
</metadata>
<g transform="translate(0.000000,300.000000) scale(0.100000,-0.100000)"
fill="#000000" stroke="none">
<path d="M1336 2679 c-34 -40 -34 -99 -3 -193 29 -84 23 -138 -18 -173 l-26
-23 179 0 178 0 17 34 c19 41 15 81 -18 180 -32 97 -32 136 1 175 l26 31 -155
0 -155 0 -26 -31z m279 -16 c-18 -37 -13 -81 19 -182 26 -82 29 -142 7 -164
-5 -5 -74 -10 -154 -11 l-145 -2 18 34 c21 39 18 84 -10 168 -26 74 -26 124 1
158 20 26 22 26 149 26 l128 0 -13 -27z"/>
<path d="M1426 2653 c-12 -22 -15 -24 -16 -9 0 16 -2 17 -17 5 -15 -12 -16
-12 -10 6 6 16 3 15 -13 -5 -24 -31 -28 -59 -5 -40 8 7 12 16 9 21 -3 5 2 6
10 3 9 -3 13 -10 10 -15 -10 -16 13 -9 28 9 16 18 31 52 23 52 -2 0 -11 -12
-19 -27z"/>
<path d="M1405 2548 c9 -5 50 -8 91 -6 l74 3 -32 -29 c-62 -54 -76 -61 -96
-44 -39 34 -43 28 -12 -17 l33 -48 34 37 c21 22 39 33 46 29 20 -12 59 -15 52
-3 -3 5 -17 10 -31 10 -31 0 -30 9 4 46 l28 31 -104 0 c-69 0 -98 -3 -87 -9z"/>
<path d="M1428 2388 c9 -9 48 -12 131 -10 95 3 68 13 -43 16 -53 1 -93 -1 -88
-6z"/>
<path d="M1239 2117 c-249 -298 -329 -355 -502 -364 -54 -2 -110 -9 -124 -14
-78 -29 -173 -145 -272 -329 -34 -62 -61 -117 -61 -121 0 -4 -7 -20 -15 -36
-26 -50 -66 -145 -62 -149 2 -2 37 44 77 104 99 145 150 211 210 270 54 53 84
59 92 18 8 -39 -5 -227 -17 -246 -2 -3 -6 -30 -10 -60 -4 -30 -9 -58 -11 -61
-2 -4 -6 -24 -10 -45 -7 -47 -115 -480 -143 -578 -12 -38 -19 -71 -17 -74 2
-2 7 7 11 20 18 58 249 512 301 591 117 177 164 112 161 -225 -2 -190 1 -193
53 -49 29 79 43 135 56 216 7 46 7 195 -1 235 -3 19 -15 70 -27 113 -25 96
-21 176 13 239 13 24 60 93 105 154 45 61 87 120 93 132 6 11 17 26 24 34 31
32 184 325 174 334 -2 2 -46 -47 -98 -109z"/>
<path d="M1397 2187 c-39 -67 -115 -267 -133 -352 -2 -11 -11 -47 -19 -80 -16
-68 -14 -285 4 -345 17 -54 26 -146 26 -260 -1 -84 -5 -118 -24 -170 -20 -59
-99 -255 -122 -305 -34 -75 -75 -268 -77 -360 l-1 -70 27 80 c15 44 30 85 33
90 4 6 12 28 19 50 20 62 115 253 162 324 75 115 158 181 211 167 33 -8 113
-88 166 -166 58 -85 132 -240 192 -404 27 -72 49 -124 50 -116 4 46 -4 111
-27 237 -9 46 -64 203 -107 305 -78 182 -89 222 -91 338 -2 65 4 140 15 200
31 172 38 284 24 365 -31 168 -145 486 -185 510 -8 5 -11 2 -7 -11 31 -108 67
-245 71 -269 3 -16 10 -52 15 -80 13 -67 8 -204 -9 -235 -14 -26 -56 -70 -68
-70 -4 -1 -24 -3 -44 -6 -25 -4 -51 1 -81 14 -64 28 -82 71 -81 192 0 96 11
152 66 353 16 60 27 111 25 113 -3 3 -16 -15 -30 -39z"/>
<path d="M1632 2214 c3 -5 22 -45 43 -89 63 -135 130 -242 271 -430 107 -144
134 -233 99 -337 -47 -145 -51 -297 -11 -487 9 -41 38 -124 63 -176 l23 -50 1
165 c0 91 2 174 3 185 13 93 23 122 49 144 37 30 117 -84 261 -374 77 -155
140 -291 150 -323 12 -37 17 -19 5 19 -15 53 -147 570 -153 604 -40 208 -49
274 -50 352 -1 106 8 126 48 100 58 -38 169 -178 291 -365 22 -33 41 -60 42
-58 6 5 -78 199 -126 292 -98 188 -212 331 -283 352 -18 6 -76 12 -128 15 -76
4 -106 10 -153 32 -75 36 -181 135 -319 300 -61 71 -115 132 -120 134 -6 2 -8
0 -6 -5z"/>
<path d="M676 2101 c-135 -89 -60 -329 94 -301 72 13 120 76 120 157 0 123
-122 205 -214 144z"/>
<path d="M2150 2097 c-61 -40 -84 -107 -67 -187 22 -100 142 -147 217 -84 42
36 63 80 63 134 0 125 -119 201 -213 137z"/>
<path d="M1424 1888 c-45 -52 -59 -117 -38 -186 22 -77 90 -113 142 -76 99 69
60 284 -52 284 -21 0 -39 -8 -52 -22z"/>
<path d="M2540 878 c0 -5 9 -8 20 -8 20 0 26 -21 21 -72 -1 -10 3 -18 8 -18 6
0 11 20 11 45 0 38 3 45 20 45 11 0 20 3 20 8 0 4 -22 7 -50 7 -27 0 -50 -3
-50 -7z"/>
<path d="M2659 888 c-7 -12 -4 -108 3 -108 4 0 8 17 9 38 l0 37 21 -45 20 -45
16 42 c23 56 28 59 24 12 -3 -24 0 -39 7 -39 14 0 15 96 1 105 -5 3 -14 -4
-19 -17 -5 -13 -13 -34 -18 -48 -10 -24 -11 -23 -31 23 -18 41 -28 54 -33 45z"/>
</g>
</svg>
