<?xml version="1.0" standalone="no"?>
<!DOCTYPE svg PUBLIC "-//W3C//DTD SVG 20010904//EN"
 "http://www.w3.org/TR/2001/REC-SVG-20010904/DTD/svg10.dtd">
<svg version="1.0" xmlns="http://www.w3.org/2000/svg"
 width="552.000000pt" height="552.000000pt" viewBox="0 0 552.000000 552.000000"
 preserveAspectRatio="xMidYMid meet">
<metadata>
Created by potrace 1.11, written by Peter Selinger 2001-2013
</metadata>
<g transform="translate(0.000000,552.000000) scale(0.100000,-0.100000)"
fill="#000000" stroke="none">
<path d="M2455 5354 c-49 -55 -75 -129 -70 -204 4 -64 12 -97 61 -245 47 -142
48 -215 3 -295 -23 -40 -83 -90 -109 -90 -7 0 -10 -3 -6 -7 10 -10 737 -11
758 -1 10 5 30 30 45 56 25 41 28 57 28 132 0 57 -6 101 -18 135 -19 51 -28
78 -28 82 0 1 -11 30 -24 63 -49 124 -60 241 -30 304 8 17 31 48 50 68 19 20
35 39 35 42 0 3 -147 6 -327 6 l-328 -1 -40 -45z m615 10 c0 -1 -12 -23 -27
-50 -30 -54 -40 -145 -22 -209 6 -21 12 -45 14 -54 2 -9 25 -77 50 -151 52
-151 61 -240 31 -297 -32 -63 -17 -61 -351 -61 -172 0 -305 4 -305 9 0 5 4 9
9 9 5 0 12 8 15 18 4 9 14 31 23 47 18 31 24 141 11 202 -5 26 -43 143 -76
233 -34 95 -14 197 51 263 l42 42 268 0 c147 0 267 -1 267 -1z"/>
<path d="M2526 5283 c-20 -27 -42 -56 -50 -67 -8 -10 -12 -24 -9 -32 4 -11 10
-11 35 4 36 21 63 50 55 58 -4 4 -15 -4 -26 -17 -11 -13 -22 -21 -25 -18 -5 5
22 47 64 96 6 7 6 14 1 18 -6 3 -26 -16 -45 -42z"/>
<path d="M2630 5270 c-17 -33 -32 -60 -35 -60 -6 0 0 29 12 60 14 33 10 35
-21 15 -27 -18 -34 -35 -16 -35 7 0 7 -6 0 -19 -15 -29 -12 -41 8 -41 23 0 54
33 81 87 24 48 25 53 11 53 -5 0 -23 -27 -40 -60z"/>
<path d="M2561 5063 c-18 -14 -15 -14 104 -18 33 -1 72 -5 88 -8 15 -4 36 -3
47 3 11 6 21 6 25 1 6 -10 38 -9 65 1 8 4 25 8 37 11 33 7 18 -13 -45 -60 -31
-23 -81 -61 -109 -84 l-53 -42 -63 42 c-35 22 -66 41 -70 41 -5 0 101 -156
129 -189 4 -4 31 26 149 167 55 67 109 122 120 124 11 2 18 7 15 13 -8 14
-419 13 -439 -2z"/>
<path d="M2888 4908 l-22 -22 23 -6 c21 -5 75 -5 118 -1 7 0 10 7 7 15 -3 8
-13 13 -22 11 -9 -1 -32 4 -50 11 -30 12 -35 11 -54 -8z"/>
<path d="M2556 4901 c-3 -5 1 -11 9 -15 9 -3 15 0 15 9 0 16 -16 20 -24 6z"/>
<path d="M2639 4734 c-32 -17 -26 -30 12 -26 16 2 36 -1 42 -7 15 -11 72 -13
217 -7 58 2 113 5 123 5 34 2 16 17 -31 27 -37 7 -57 7 -82 -4 -23 -9 -40 -10
-60 -3 -16 5 -31 7 -34 3 -9 -8 -98 -3 -111 7 -20 16 -52 18 -76 5z"/>
<path d="M2635 4387 c-22 -24 -85 -135 -118 -207 -165 -360 -306 -876 -301
-1105 1 -76 13 -239 20 -285 8 -51 34 -202 39 -225 2 -11 7 -36 10 -55 3 -19
11 -62 16 -95 22 -121 31 -388 17 -486 -12 -84 -64 -263 -103 -354 -7 -16 -22
-52 -33 -80 -11 -27 -31 -72 -43 -100 -13 -27 -24 -52 -24 -55 -1 -3 -9 -23
-19 -45 -10 -22 -27 -62 -38 -90 -11 -27 -25 -61 -31 -75 -5 -14 -11 -29 -13
-35 -1 -5 -21 -61 -43 -124 -57 -160 -111 -400 -127 -561 -7 -69 -15 -274 -10
-270 3 4 81 232 91 270 1 3 5 14 9 25 4 11 21 56 37 100 17 44 34 89 38 100
196 468 338 716 509 893 133 137 220 174 307 130 82 -42 174 -127 254 -235 28
-37 55 -73 61 -80 5 -7 10 -16 10 -22 0 -5 4 -11 8 -13 10 -4 109 -172 155
-263 109 -214 201 -437 292 -708 36 -104 66 -192 69 -194 8 -8 -8 265 -19 337
-2 14 -7 43 -10 65 -32 224 -133 529 -293 886 -76 169 -139 355 -160 474 -8
48 -9 337 0 415 5 47 28 187 44 270 21 110 34 189 40 252 10 96 11 362 1 413
-15 83 -19 103 -44 205 -14 58 -26 110 -27 115 -1 6 -7 26 -13 45 -6 19 -28
89 -48 155 -75 239 -201 522 -265 595 -29 32 -31 33 -25 10 3 -14 8 -36 11
-50 2 -14 7 -32 10 -40 57 -152 196 -732 180 -748 -2 -2 0 -18 5 -35 16 -52
12 -245 -6 -324 -26 -115 -98 -203 -190 -233 -22 -7 -74 -13 -116 -14 -166 -1
-277 101 -304 279 -10 62 -11 210 -2 290 16 140 70 387 127 580 12 39 23 79
25 90 3 11 9 31 14 45 35 90 51 194 26 167z"/>
<path d="M2438 4381 c-1 -5 -22 -30 -45 -57 -23 -27 -72 -85 -109 -129 -36
-44 -78 -94 -93 -110 -14 -17 -51 -59 -81 -95 -213 -252 -370 -409 -504 -500
-44 -30 -141 -83 -156 -85 -3 -1 -21 -6 -41 -13 -73 -25 -140 -35 -229 -33
-196 4 -210 4 -257 -14 -111 -42 -229 -143 -338 -290 -16 -22 -32 -42 -35 -45
-14 -14 -150 -227 -150 -235 0 -3 -12 -24 -26 -47 -25 -39 -194 -372 -194
-381 0 -3 -12 -31 -27 -63 -15 -33 -28 -61 -28 -64 -1 -3 -9 -23 -19 -45 -10
-22 -24 -58 -33 -80 -8 -22 -19 -49 -23 -60 -20 -45 -40 -98 -40 -104 0 -3 43
58 95 137 145 219 353 512 394 553 9 9 25 29 36 45 40 57 191 201 223 212 70
24 97 -49 89 -243 -3 -71 -8 -141 -11 -155 -2 -14 -7 -45 -10 -70 -6 -45 -10
-72 -22 -140 -3 -19 -8 -46 -10 -60 -6 -34 -65 -330 -70 -355 -3 -11 -7 -29
-9 -40 -6 -28 -124 -516 -131 -540 -3 -11 -7 -31 -10 -45 -2 -14 -9 -36 -13
-50 -9 -25 -22 -78 -20 -82 0 -2 -4 -15 -10 -31 -6 -15 -13 -38 -15 -50 -2
-12 -14 -57 -26 -99 -11 -43 -23 -85 -25 -95 -2 -10 -18 -65 -35 -123 -16 -58
-32 -114 -35 -125 -2 -11 -7 -31 -10 -45 -6 -22 -5 -22 10 5 9 17 18 35 19 40
5 17 22 58 64 146 21 46 65 140 97 209 99 213 381 767 396 780 4 3 16 23 28
45 46 87 141 223 186 268 108 108 179 19 213 -268 4 -33 7 -214 7 -403 0 -188
1 -342 2 -342 1 0 20 39 43 87 40 86 93 228 123 333 22 73 39 149 52 230 4 25
9 54 11 65 14 75 20 336 9 420 -2 17 -6 53 -10 80 -3 28 -8 57 -10 65 -2 8 -7
29 -10 46 -2 17 -16 71 -31 120 -14 49 -27 96 -29 104 -2 8 -4 15 -5 15 -7 0
-11 56 -12 140 -1 84 3 112 26 175 22 62 105 215 138 255 5 5 30 39 56 75 26
36 51 70 57 76 5 6 18 22 28 35 9 13 49 67 88 119 143 190 276 406 381 614 66
132 148 326 138 326 -5 0 -10 -4 -12 -9z"/>
<path d="M3075 4357 c7 -17 24 -57 37 -87 33 -81 168 -353 184 -370 7 -8 13
-18 13 -23 0 -4 7 -17 15 -30 8 -12 39 -63 69 -112 48 -78 157 -239 184 -270
5 -5 61 -80 125 -165 166 -222 237 -339 258 -425 1 -5 7 -21 12 -35 28 -71 12
-232 -37 -385 -8 -27 -17 -59 -20 -70 -21 -101 -34 -175 -34 -191 1 -10 -2
-30 -5 -44 -7 -28 -8 -270 -1 -340 22 -249 105 -540 219 -763 l21 -43 -2 353
c-1 194 1 353 5 353 4 0 7 19 8 43 3 103 38 243 72 283 66 78 138 21 294 -231
65 -105 168 -291 168 -304 0 -4 9 -20 21 -35 11 -14 17 -26 14 -26 -4 0 -3 -6
3 -12 16 -21 209 -411 282 -574 12 -27 39 -85 60 -129 20 -44 49 -108 65 -143
15 -34 29 -61 31 -59 2 1 -13 57 -32 122 -19 66 -37 131 -40 145 -3 14 -11 45
-18 70 -12 39 -49 178 -61 229 -14 55 -57 221 -66 248 -5 18 -12 40 -14 50 -4
20 -42 185 -52 223 -3 14 -7 30 -8 35 -2 6 -17 72 -34 148 -29 127 -45 204
-57 267 -2 14 -8 45 -13 70 -18 89 -34 179 -46 275 -3 17 -8 53 -12 80 -9 68
-10 303 0 338 4 15 16 36 27 47 19 19 23 19 56 5 38 -16 169 -141 220 -210 16
-22 34 -44 40 -50 6 -5 38 -46 70 -90 33 -44 63 -84 67 -90 23 -28 168 -238
178 -257 7 -13 17 -28 23 -34 6 -6 17 -20 23 -30 7 -11 23 -35 37 -55 13 -20
36 -57 51 -83 30 -51 43 -56 24 -10 -6 16 -15 38 -19 49 -5 11 -17 41 -29 67
-12 26 -21 52 -21 56 0 5 -6 22 -14 38 -8 16 -24 50 -35 77 -52 117 -68 150
-133 281 -285 571 -542 844 -782 829 -170 -10 -247 -4 -350 27 -168 52 -343
187 -556 429 -36 41 -74 84 -85 95 -11 12 -75 86 -142 166 -67 80 -138 163
-157 185 -20 22 -46 54 -58 71 -12 17 -30 37 -40 43 -17 10 -17 9 -3 -22z"/>
<path d="M1084 4130 c-150 -59 -237 -265 -183 -433 16 -51 67 -134 100 -163
73 -64 167 -91 249 -72 19 5 43 10 52 13 22 5 86 52 115 85 36 42 71 121 81
186 8 56 3 98 -23 198 -7 28 -47 86 -86 124 -77 75 -205 101 -305 62z"/>
<path d="M4236 4135 c-111 -43 -189 -144 -211 -275 -27 -160 46 -312 180 -376
116 -54 259 -21 338 78 15 18 32 39 38 46 22 26 50 125 53 185 6 136 -56 257
-168 322 -59 35 -167 44 -230 20z"/>
<path d="M2707 3695 c-56 -19 -81 -39 -116 -92 -52 -78 -72 -185 -57 -303 12
-98 93 -209 169 -235 37 -12 109 -2 143 20 36 23 89 96 110 150 28 75 26 232
-4 300 -61 135 -149 193 -245 160z"/>
</g>
</svg>
